<?xml version="1.0" encoding="UTF-8" standalone="no"?>
<svg
   xmlns:dc="http://purl.org/dc/elements/1.1/"
   xmlns:cc="http://creativecommons.org/ns#"
   xmlns:rdf="http://www.w3.org/1999/02/22-rdf-syntax-ns#"
   xmlns:svg="http://www.w3.org/2000/svg"
   xmlns="http://www.w3.org/2000/svg"
   xmlns:sodipodi="http://sodipodi.sourceforge.net/DTD/sodipodi-0.dtd"
   xmlns:inkscape="http://www.inkscape.org/namespaces/inkscape"
   inkscape:version="1.0 (4035a4fb49, 2020-05-01)"
   sodipodi:docname="download.svg"
   id="svg6"
   version="1.1"
   viewBox="0 0 20 20">
  <metadata
     id="metadata12">
    <rdf:RDF>
      <cc:Work
         rdf:about="">
        <dc:format>image/svg+xml</dc:format>
        <dc:type
           rdf:resource="http://purl.org/dc/dcmitype/StillImage" />
        <dc:title>Download icon</dc:title>
      </cc:Work>
    </rdf:RDF>
  </metadata>
  <defs
     id="defs10" />
  <sodipodi:namedview
     inkscape:current-layer="svg6"
     inkscape:window-maximized="1"
     inkscape:window-y="-9"
     inkscape:window-x="-9"
     inkscape:cy="10"
     inkscape:cx="10"
     inkscape:zoom="36.75"
     showgrid="false"
     id="namedview8"
     inkscape:window-height="1271"
     inkscape:window-width="2400"
     inkscape:pageshadow="2"
     inkscape:pageopacity="0"
     guidetolerance="10"
     gridtolerance="10"
     objecttolerance="10"
     borderopacity="1"
     bordercolor="#666666"
     pagecolor="#000000" />
  <title
     id="title2">Download icon</title>
  <path
     id="path4"
     fill-rule="evenodd"
     fill="#ffffff"
     d="M 10.5,12.157 V 6.5 h -1 v 5.65 l -1.924,-2.236 -0.758,0.65 3.183,3.702 3.195,-3.7 -0.758,-0.653 z M 10,2.5 c -4.142,0 -7.5,3.358 -7.5,7.5 0,4.142 3.358,7.5 7.5,7.5 4.142,0 7.5,-3.358 7.5,-7.5 0,-4.142 -3.358,-7.5 -7.5,-7.5 z m 0,14 C 6.416,16.5 3.5,13.584 3.5,10 3.5,6.416 6.416,3.5 10,3.5 c 3.584,0 6.5,2.916 6.5,6.5 0,3.584 -2.916,6.5 -6.5,6.5 z" />
</svg>
